<?xml version="1.0" encoding="UTF-8" standalone="no"?>
<svg
   xmlns:dc="http://purl.org/dc/elements/1.1/"
   xmlns:cc="http://creativecommons.org/ns#"
   xmlns:rdf="http://www.w3.org/1999/02/22-rdf-syntax-ns#"
   xmlns:svg="http://www.w3.org/2000/svg"
   xmlns="http://www.w3.org/2000/svg"
   xmlns:sodipodi="http://sodipodi.sourceforge.net/DTD/sodipodi-0.dtd"
   xmlns:inkscape="http://www.inkscape.org/namespaces/inkscape"
   height="22.348698"
   width="25.036694"
   id="svg2"
   version="1.1"
   inkscape:version="0.48.4 r9939"
   sodipodi:docname="metro_active.svg">
  <sodipodi:namedview
     pagecolor="#ffffff"
     bordercolor="#666666"
     borderopacity="1"
     objecttolerance="10"
     gridtolerance="10"
     guidetolerance="10"
     inkscape:pageopacity="0"
     inkscape:pageshadow="2"
     inkscape:window-width="1440"
     inkscape:window-height="850"
     id="namedview42"
     showgrid="false"
     inkscape:zoom="21.125322"
     inkscape:cx="10.579892"
     inkscape:cy="10.864161"
     inkscape:window-x="0"
     inkscape:window-y="0"
     inkscape:window-maximized="1"
     inkscape:current-layer="svg2"
     fit-margin-top="1"
     fit-margin-left="1"
     fit-margin-right="1"
     fit-margin-bottom="1" />
  <metadata
     id="metadata4">
    <rdf:RDF>
      <cc:Work
         rdf:about="">
        <dc:title>Carte de France</dc:title>
        <dc:description>site web</dc:description>
        <dc:subject>
          <rdf:Bag>
            <rdf:li>hash</rdf:li>
            <rdf:li>map</rdf:li>
            <rdf:li />
            <rdf:li>geography</rdf:li>
            <rdf:li>europe</rdf:li>
            <rdf:li>france</rdf:li>
          </rdf:Bag>
        </dc:subject>
        <dc:publisher>
          <cc:Agent
             rdf:about="http://www.openclipart.org">
            <dc:title>Yves Aubry (yvounet)</dc:title>
          </cc:Agent>
        </dc:publisher>
        <dc:creator>
          <cc:Agent>
            <dc:title>Yves Aubry (yvounet)</dc:title>
          </cc:Agent>
        </dc:creator>
        <dc:rights>
          <cc:Agent>
            <dc:title>Yves Aubry (yvounet)</dc:title>
          </cc:Agent>
        </dc:rights>
        <dc:date />
        <dc:format>image/svg+xml</dc:format>
        <dc:type
           rdf:resource="http://purl.org/dc/dcmitype/StillImage" />
        <cc:license
           rdf:resource="http://web.resource.org/cc/PublicDomain" />
        <dc:language>en</dc:language>
      </cc:Work>
      <cc:License
         rdf:about="http://web.resource.org/cc/PublicDomain">
        <cc:permits
           rdf:resource="http://web.resource.org/cc/Reproduction" />
        <cc:permits
           rdf:resource="http://web.resource.org/cc/Distribution" />
        <cc:permits
           rdf:resource="http://web.resource.org/cc/DerivativeWorks" />
      </cc:License>
    </rdf:RDF>
  </metadata>
  <defs
     id="defs6">
    <marker
       id="ArrowEnd"
       markerHeight="3"
       markerUnits="strokeWidth"
       markerWidth="4"
       orient="auto"
       refX="0"
       refY="5"
       viewBox="0 0 10 10">
      <path
         d="M 0,0 10,5 0,10 z"
         id="path9"
         inkscape:connector-curvature="0" />
    </marker>
    <marker
       id="ArrowStart"
       markerHeight="3"
       markerUnits="strokeWidth"
       markerWidth="4"
       orient="auto"
       refX="10"
       refY="5"
       viewBox="0 0 10 10">
      <path
         d="M 10,0 0,5 10,10 z"
         id="path12"
         inkscape:connector-curvature="0" />
    </marker>
  </defs>
  <g
     id="g14"
     style="stroke:#ffffff;stroke-width:17.71765709;stroke-miterlimit:4;stroke-opacity:1;stroke-dasharray:none"
     inkscape:export-filename="/home/glide/Documents/fcbn/src/Fcbn/NewSIFloreBundle/Resources/public/img/metro_active.png"
     inkscape:export-xdpi="88.457748"
     inkscape:export-ydpi="88.457748"
     transform="matrix(0.05644087,0,0,0.05644087,1.4427081,1.3897948)">
    <path
       d="m 79.0188,55.3507 5.3689,0.179 0.7158,1.7896 4.1162,0 1.4317,-1.2527 4.8321,0.7158 0.1789,3.0424 -1.0738,0.5369 -0.1789,3.5793 2.8634,2.3265 0,2.6845 1.7896,0 0.358,-1.4317 7.3373,0.7158 9.485,2.1476 2.327,1.7896 4.653,-0.1789 3.758,-3.5793 3.4,-1.4317 -3.221,-0.8948 -1.79,-1.9687 2.685,-2.6844 0.895,-3.7583 5.369,-3.7582 5.19,-2.6844 8.232,-2.1476 6.443,-4.2951 4.832,-6.8007 1.968,-8.0533 -0.716,-10.201 1.79,-5.9058 4.653,-2.8634 5.727,-1.25273 8.411,-4.47413 2.685,5.54796 -0.895,3.7582 4.653,3.5793 3.579,1.9685 4.116,-3.9371 3.043,3.4003 0.537,3.5793 2.326,3.4002 5.19,-0.7158 2.685,3.5793 0.536,2.3265 5.727,-0.3579 3.043,-0.3579 2.326,2.1475 -0.895,5.19 2.148,1.6106 -1.074,2.6845 2.148,1.6106 7.158,-0.1789 3.043,-2.8634 3.042,-5.7269 0,7.8745 1.79,5.3689 9.664,3.5792 4.653,5.3689 3.758,-0.1789 2.863,-2.5055 3.043,3.4003 6.8,-0.7159 3.222,-1.7896 3.937,1.7896 6.801,9.1272 3.758,0.358 -0.179,-1.9687 3.937,-0.5368 2.685,2.8634 4.295,-0.5369 1.073,-1.7897 2.864,0.358 2.684,3.2213 8.054,-1.4317 6.979,2.1476 -1.252,6.9795 -5.727,5.9059 -3.043,20.0437 1.074,6.98 -1.789,5.727 1.61,4.653 0.537,4.116 -2.863,3.579 -5.548,0.179 -0.358,-2.505 -1.969,0.537 -4.295,3.579 0,2.863 3.758,-0.895 -0.716,2.685 -7.695,12.348 -4.295,0.716 -0.537,8.412 -6.622,6.263 1.074,1.969 -1.789,2.863 0,2.506 2.863,1.789 -1.611,3.58 -3.758,1.789 2.148,2.864 4.653,-1.253 2.147,-2.327 0,-1.968 -1.968,-1.969 2.326,-1.968 4.295,-0.358 4.653,-3.222 5.011,5.548 -2.147,4.832 2.505,0.179 5.011,6.98 -2.326,3.579 -3.043,1.432 0.179,3.4 2.506,1.969 2.863,0.358 0.358,4.474 5.011,3.758 0,6.443 -6.264,4.474 -5.369,0 0.179,4.116 2.864,1.611 0.895,3.4 6.621,1.969 0,8.411 -3.579,2.863 3.758,2.864 -2.326,0.895 0,2.505 5.727,4.295 3.937,0 1.968,1.611 8.949,0.895 1.968,-3.58 1.79,4.832 -1.253,4.295 -2.684,3.759 1.789,3.4 -5.011,2.685 -4.295,1.968 -1.968,4.653 -3.043,1.611 -2.326,4.653 -4.474,2.505 -0.537,6.98 -7.338,1.074 -3.758,3.758 -7.338,1.253 -8.232,-1.432 -9.843,-2.684 0,-3.938 -3.937,-0.179 -2.327,1.432 -14.138,-0.358 -2.147,-3.937 -4.117,1.253 -6.979,-0.358 -2.864,-3.043 -13.601,10.38 -3.042,0.537 -5.548,5.19 -3.4,7.338 0.179,9.485 1.789,7.516 -1.61,0.895 -3.759,0.716 -6.442,5.548 -5.19,-0.358 -3.759,-2.506 -4.832,0.537 -0.716,2.148 -4.474,0 -1.073,-3.222 -5.369,-2.684 -0.179,-3.042 -6.443,-2.148 -1.969,2.148 -2.326,-4.474 -5.548,0.357 -1.79,-2.863 -5.547,-0.716 -7.159,-1.253 1.432,5.727 -9.664,0.716 -11.633,-1.253 0,-2.684 -6.98,-1.969 -6.442,1.79 -5.19,-6.801 -8.2326,0 -5.3689,-3.4 -0.8948,-2.147 -0.8948,-0.179 -1.2528,2.863 -2.1476,-0.358 0,-2.326 1.4318,-0.895 -0.179,-5.727 -9.1272,-1.432 -1.9686,-2.863 4.4741,-1.432 4.8321,-5.727 1.4317,-7.516 3.2213,-10.559 1.6107,-11.454 1.4317,-11.454 3.9372,0.895 -3.5793,-4.653 0.8948,-13.243 0.8949,-12.349 2.5055,-1.431 2.8634,2.505 4.6534,6.264 2.684,6.801 -0.895,-11.275 -5.906,-6.085 -7.695,-4.116 0.5369,-5.727 -4.2951,-4.474 0.8948,-3.4 2.8634,2.505 1.9686,3.221 2.6845,-1.789 -0.3579,-4.653 -3.4004,-3.401 -4.474,0 -2.6845,2.327 -3.0424,-2.685 2.3265,-3.758 3.5793,1.79 4.832,0 -1.6106,-2.685 -5.3689,-2.684 -5.369,-2.148 -4.2951,-3.579 -0.3579,-5.369 -5.7269,-5.369 0.5369,-3.579 2.6845,-4.295 -1.6107,-3.042 -3.2213,-0.537 -1.4318,-4.474 -5.0109,0.357 -1.6107,-3.221 0.8948,-6.085 -2.1476,-1.789 -5.9058,1.073 -1.9686,-2.147 -2.1475,0 -1.7897,2.147 -2.5055,-1.073 0.179,-4.116 -2.3265,-2.506 -2.1476,0.537 -3.9372,2.684 -2.5055,-0.537 -0.3579,-2.684 3.7582,-0.358 -3.4003,-3.4 -6.4427,-1.79 -1.6107,-1.789 -2.8634,0.179 -2.5055,2.863 -3.5793,-0.358 -2.3265,-4.116 0,-3.758 -4.832,-1.432 -1.78964,-0.537 0.35792,-1.969 1.78962,-1.431 5.9058,-0.179 1.4317,1.073 2.3266,-0.178 0.1789,-2.864 -2.6844,-0.716 -3.0424,0.537 -2.1476,-0.537 0.358,-2.684 1.9686,-0.179 5.1899,0.537 0,-2.148 -3.4003,-1.432 -2.3265,1.253 -4.4741,0.358 -2.1476,-4.474 1.7896,-3.9372 5.369,-1.9686 6.4426,-1.4317 5.9059,-0.7159 4.4741,1.6107 0.3579,-1.7896 6.8006,0 1.0738,-4.2951 4.1162,-0.179 6.8006,0.8948 3.5793,4.653 2.6844,4.6531 2.1476,2.5055 3.5793,-0.7159 2.5054,-3.7582 6.8007,2.1476 1.2527,-1.9686 6.2638,-1.0738 1.4317,2.3265 5.011,0.179 2.3265,-2.5055 -1.7897,-2.8634 -0.7158,-14.675 -5.3689,-8.0534 -1.2528,-5.7269 -0.1789,-3.7582 -1.2528,-2.6845 0,0"
       style="fill:none;stroke:#ffffff;stroke-width:17.71765709;stroke-miterlimit:4;stroke-opacity:1;stroke-dasharray:none"
       id="path16"
       inkscape:connector-curvature="0" />
    <path
       d="m 380.656,281.417 3.254,0.452 1.175,3.615 -0.362,8.676 2.621,3.524 1.356,3.344 0.813,4.157 1.807,5.513 -0.542,5.965 -2.169,4.066 0.091,5.604 1.355,2.62 -0.09,4.158 -1.808,5.603 -0.813,4.067 -3.163,0.813 -1.808,-2.35 -7.772,-1.355 -1.626,-1.717 0.632,-3.254 -4.88,-2.892 2.079,-1.898 0.361,-4.518 -5.151,0.632 -0.181,-3.163 2.711,-3.705 -1.536,-1.356 -3.254,-0.632 -0.813,-3.977 1.536,-0.813 0.181,-1.265 -1.807,-1.718 1.626,-6.416 4.519,-4.79 5.332,-1.717 1.265,-3.705 4.881,-1.266 1.355,-2.892 -1.355,-4.066 0.18,-3.344 z"
       style="fill:none;stroke:#ffffff;stroke-width:17.71765709;stroke-miterlimit:4;stroke-opacity:1;stroke-dasharray:none"
       id="path18"
       inkscape:connector-curvature="0" />
    <path
       d="m 4.05771,96.0114 c 0,0.871 -0.68498,1.5781 -1.52886,1.5781 -0.84387,0 -1.52884,-0.7071 -1.52884,-1.5781 0,-0.8711 0.68497,-1.5782 1.52884,-1.5782 0.84388,0 1.52886,0.7071 1.52886,1.5782 z"
       style="fill:none;stroke:#ffffff;stroke-width:17.71765709;stroke-miterlimit:4;stroke-opacity:1;stroke-dasharray:none"
       id="path20"
       inkscape:connector-curvature="0" />
    <path
       d="m 44.2023,138.721 0.2959,3.55 5.3264,0.395 -1.3809,-2.466 -1.9728,-1.578 -2.1699,0.69"
       style="fill:none;stroke:#ffffff;stroke-width:17.71765709;stroke-miterlimit:4;stroke-opacity:1;stroke-dasharray:none"
       id="path22"
       inkscape:connector-curvature="0" />
    <path
       d="m 41.5392,135.071 0.0986,1.184 2.17,1.183 1.4795,-1.183 -1.3809,-1.381 -2.2686,0.296"
       style="fill:none;stroke:#ffffff;stroke-width:17.71765709;stroke-miterlimit:4;stroke-opacity:1;stroke-dasharray:none"
       id="path24"
       inkscape:connector-curvature="0" />
    <path
       d="m 50.0218,138.03 3.1564,3.551 1.5781,-0.296 -2.6631,-3.452 -1.9727,0.197"
       style="fill:none;stroke:#ffffff;stroke-width:17.71765709;stroke-miterlimit:4;stroke-opacity:1;stroke-dasharray:none"
       id="path26"
       inkscape:connector-curvature="0" />
    <path
       d="m 66.6912,152.727 0.2959,2.663 3.4523,0.986 0.2959,-2.959 -1.5782,-1.578 -2.6632,0.69"
       style="fill:none;stroke:#ffffff;stroke-width:17.71765709;stroke-miterlimit:4;stroke-opacity:1;stroke-dasharray:none"
       id="path28"
       inkscape:connector-curvature="0" />
    <path
       d="m 63.4362,162.886 0.4932,2.367 3.7482,0.099 -1.5782,-2.564 -2.7618,0.295"
       style="fill:none;stroke:#ffffff;stroke-width:17.71765709;stroke-miterlimit:4;stroke-opacity:1;stroke-dasharray:none"
       id="path30"
       inkscape:connector-curvature="0" />
    <path
       d="m 70.4394,71.4511 0.3945,2.0714 3.5509,2.9591 4.5372,-0.9864 -1.2822,-3.1563 -3.8468,-3.1564 -3.3536,1.7754"
       style="fill:none;stroke:#ffffff;stroke-width:17.71765709;stroke-miterlimit:4;stroke-opacity:1;stroke-dasharray:none"
       id="path32"
       inkscape:connector-curvature="0" />
    <path
       d="m 61.069,60.8972 0,4.4386 1.4795,0.8876 3.255,0.0987 2.17,-3.1563 -4.1427,-1.5782 -2.5645,-0.7891"
       style="fill:none;stroke:#ffffff;stroke-width:17.71765709;stroke-miterlimit:4;stroke-opacity:1;stroke-dasharray:none"
       id="path34"
       inkscape:connector-curvature="0" />
    <path
       d="m 73.3984,53.7954 -0.3945,4.2413 2.17,-0.2959 -0.3946,-4.044 -1.2822,-0.1973"
       style="fill:none;stroke:#ffffff;stroke-width:17.71765709;stroke-miterlimit:4;stroke-opacity:1;stroke-dasharray:none"
       id="path36"
       inkscape:connector-curvature="0" />
    <path
       d="m 62.2526,70.5634 c 0,0.5444 -0.4419,0.9863 -0.9863,0.9863 -0.5445,0 -0.9864,-0.4419 -0.9864,-0.9863 0,-0.5445 0.4419,-0.9864 0.9864,-0.9864 0.5444,0 0.9863,0.4419 0.9863,0.9864 z"
       style="fill:none;stroke:#ffffff;stroke-width:17.71765709;stroke-miterlimit:4;stroke-opacity:1;stroke-dasharray:none"
       id="path38"
       inkscape:connector-curvature="0" />
    <path
       d="m 75.0247,171.089 c 0,0.758 -0.4239,1.372 -0.9463,1.372 -0.5223,0 -0.9462,-0.614 -0.9462,-1.372 0,-0.757 0.4239,-1.372 0.9462,-1.372 0.5224,0 0.9463,0.615 0.9463,1.372 z"
       style="fill:none;stroke:#ffffff;stroke-width:17.71765709;stroke-miterlimit:4;stroke-opacity:1;stroke-dasharray:none"
       id="path40"
       inkscape:connector-curvature="0" />
  </g>
</svg>
