<?xml version="1.0" encoding="UTF-8" standalone="no"?>
<!-- Created with Inkscape (http://www.inkscape.org/) -->

<svg
   xmlns:dc="http://purl.org/dc/elements/1.1/"
   xmlns:cc="http://creativecommons.org/ns#"
   xmlns:rdf="http://www.w3.org/1999/02/22-rdf-syntax-ns#"
   xmlns:svg="http://www.w3.org/2000/svg"
   xmlns="http://www.w3.org/2000/svg"
   xmlns:sodipodi="http://sodipodi.sourceforge.net/DTD/sodipodi-0.dtd"
   xmlns:inkscape="http://www.inkscape.org/namespaces/inkscape"
   width="24.374346"
   height="22.011337"
   id="svg2"
   sodipodi:version="0.32"
   inkscape:version="0.48.4 r9939"
   version="1.0"
   sodipodi:docname="reun_active.svg"
   inkscape:output_extension="org.inkscape.output.svg.inkscape"
   inkscape:export-filename="D:\Wikipédia\Atelier graphique\Cartes\France géoloc\Réunion\Vector for relief map.png"
   inkscape:export-xdpi="90"
   inkscape:export-ydpi="90"
   style="display:inline">
  <sodipodi:namedview
     id="base"
     pagecolor="#ffffff"
     bordercolor="#666666"
     borderopacity="1.0"
     inkscape:pageopacity="0.0"
     inkscape:pageshadow="2"
     inkscape:zoom="21.403316"
     inkscape:cx="10.630635"
     inkscape:cy="10.253137"
     inkscape:document-units="px"
     inkscape:current-layer="layer3"
     showgrid="false"
     inkscape:window-width="1440"
     inkscape:window-height="850"
     inkscape:window-x="0"
     inkscape:window-y="0"
     borderlayer="true"
     inkscape:showpageshadow="false"
     inkscape:window-maximized="1"
     fit-margin-top="1"
     fit-margin-left="1"
     fit-margin-right="1"
     fit-margin-bottom="1" />
  <defs
     id="defs4" />
  <metadata
     id="metadata7">
    <rdf:RDF>
      <cc:Work
         rdf:about="">
        <dc:format>image/svg+xml</dc:format>
        <dc:type
           rdf:resource="http://purl.org/dc/dcmitype/StillImage" />
        <dc:title>Blank map of the French department of La Réunion, for geo-location purposes</dc:title>
        <dc:date>03-2009</dc:date>
        <dc:creator>
          <cc:Agent>
            <dc:title>Eric Gaba (user Sting) for Wikipedia</dc:title>
          </cc:Agent>
        </dc:creator>
        <dc:description>Equi-rectangular projection ; WGS84 datum
Central meridian: 055° 31' 30&quot; E
True scale latitude: 21° 07' 30&quot; S
Geographic limits of the map:
Top: 20° 48' S
Bottom: 21° 27' S
Left: 055° 09' E
Right: 055° 54' E</dc:description>
        <cc:license
           rdf:resource="http://creativecommons.org/licenses/by-sa/3.0/" />
      </cc:Work>
      <cc:License
         rdf:about="http://creativecommons.org/licenses/by-sa/3.0/">
        <cc:permits
           rdf:resource="http://creativecommons.org/ns#Reproduction" />
        <cc:permits
           rdf:resource="http://creativecommons.org/ns#Distribution" />
        <cc:requires
           rdf:resource="http://creativecommons.org/ns#Notice" />
        <cc:requires
           rdf:resource="http://creativecommons.org/ns#Attribution" />
        <cc:permits
           rdf:resource="http://creativecommons.org/ns#DerivativeWorks" />
        <cc:requires
           rdf:resource="http://creativecommons.org/ns#ShareAlike" />
      </cc:License>
    </rdf:RDF>
  </metadata>
  <g
     inkscape:groupmode="layer"
     id="layer5"
     inkscape:label="fond"
     style="display:inline"
     transform="translate(-90.178582,-854.09375)" />
  <g
     inkscape:groupmode="layer"
     id="layer4"
     inkscape:label="communes"
     style="display:inline"
     transform="translate(-90.178582,-854.09375)" />
  <g
     inkscape:groupmode="layer"
     id="layer6"
     inkscape:label="Arrondissements boundaries"
     style="display:inline"
     transform="translate(-90.178582,-854.09375)" />
  <g
     inkscape:groupmode="layer"
     id="layer7"
     inkscape:label="Rivers"
     style="display:inline"
     transform="translate(-90.178582,-854.09375)" />
  <g
     inkscape:groupmode="layer"
     id="layer3"
     inkscape:label="cotes"
     style="display:inline"
     transform="translate(-90.178582,-854.09375)">
    <path
       style="fill:none;stroke:#ffffff;stroke-width:1;stroke-linecap:round;stroke-miterlimit:4;stroke-dasharray:none;display:inline;stroke-opacity:1"
       d="m 93.387123,860.07029 c 0.0014,0.0361 -0.03336,0.036 -0.03991,0.0641 -0.02901,0.006 -0.0239,0.0452 -0.04993,0.0537 -0.0086,0.0259 -0.03487,0.034 -0.04993,0.0534 -0.02864,0.006 -0.02721,0.0423 -0.04005,0.0641 -0.01868,0.0159 -0.02466,0.0445 -0.04993,0.0537 -0.01351,0.0234 -0.04738,0.0264 -0.05994,0.0507 -0.01943,0.0158 -0.04453,0.0259 -0.05994,0.0458 -0.02063,0.0161 -0.04368,0.0299 -0.06779,0.0426 -0.0269,0.01 -0.03336,0.0406 -0.06793,0.043 -0.03897,-0.004 -0.03641,0.0336 -0.06196,0.043 -0.01849,0.0221 -0.06468,0.0165 -0.08185,0.0399 -0.01456,0.0207 -0.04477,0.0257 -0.05994,0.0457 -0.03958,10e-4 -0.05787,0.0234 -0.08998,0.0319 -0.0079,0.0324 -0.05768,0.0229 -0.07781,0.043 -0.02898,0.008 -0.0521,0.0233 -0.06995,0.0426 -0.03642,0.005 -0.05374,0.029 -0.09186,0.0323 -0.02901,0.0336 -0.07207,-0.013 -0.115874,0 -0.01886,-0.0249 -0.08847,9.1e-4 -0.109826,-0.0215 -0.04235,-0.004 -0.07404,0.0267 -0.09388,-0.0108 -0.02333,-0.0143 -0.05627,-0.02 -0.05006,-0.0638 -0.02578,0.009 -0.05451,0.0175 -0.07578,0.032 -0.04372,-0.005 -0.03039,0.0471 -0.08391,0.0318 -0.05738,-0.005 0.0035,0.0455 -0.03,0.0645 -0.0109,0.0238 -0.03464,0.0347 -0.03991,0.0641 -0.03202,0.006 -0.04177,0.0335 -0.06995,0.043 -0.03547,0.005 -0.02319,0.0582 -0.04993,0.0721 -0.01811,0.0195 -0.0068,0.0685 -0.04602,0.0669 -0.01835,-0.0174 -0.102669,-0.0195 -0.06385,0.0215 0.03459,0.006 0.01861,0.0615 0,0.0721 -0.0042,0.0313 -0.04578,0.0252 -0.04993,0.0565 -0.02434,0.0134 -0.05477,0.0208 -0.05994,0.0534 -0.04302,-0.0177 -0.05429,0.004 -0.03991,0.0374 0.0017,0.0401 -0.0277,0.0489 -0.05603,0.0589 -0.0082,0.0295 -0.0288,0.0467 -0.05994,0.0534 -0.05513,-0.0349 -0.04446,0.0288 -0.04396,0.0775 5.33e-4,0.0418 -0.02123,0.0752 0,0.11007 0.01888,0.0233 0.01991,0.0644 0.03004,0.0964 0.01587,0.0235 0.01789,0.0609 0.03789,0.0803 -0.0046,0.0429 0.02245,0.0542 0.03206,0.0829 0.009,0.0266 0.03469,0.0365 0.03991,0.0669 0.02508,0.0132 0.0325,0.044 0.03991,0.0748 0.01888,0.0157 0.02471,0.0444 0.04993,0.0537 0.0066,0.029 0.04366,0.0275 0.04005,0.0666 -0.01362,0.04 -0.05527,0.003 -0.08998,0.008 -0.0097,0.0509 0.01901,0.0634 0.03004,0.0936 0.0026,0.0457 -0.03411,0.0521 -0.02003,0.10933 -0.02312,0.029 0.01101,0.0606 0,0.10768 -0.02152,0.0196 -0.01107,0.0713 -0.0299,0.0936 0.0013,0.0491 0.0016,0.0972 -0.01001,0.13346 -0.02464,0.0275 0.01195,0.0591 0,0.10448 -0.01411,0.0337 -0.0097,0.086 -0.01001,0.1335 0.0061,0.0384 -0.01611,0.10424 0.02003,0.11315 -0.0087,0.0489 0.0225,0.058 0.0299,0.0908 0.01826,0.0145 0.02771,0.0377 0.04993,0.0481 0.01091,0.0271 0.01541,0.0606 0.04993,0.0641 0.02833,0.01 0.02338,0.0524 0.05994,0.0537 0.009,0.0296 0.03265,0.0445 0.03004,0.0857 0.0036,0.0381 0.04285,0.0407 0.03991,0.0853 0.03361,0.003 0.04142,0.0311 0.04993,0.0589 0.01784,0.0179 0.03507,0.0364 0.0479,0.0592 -0.0017,0.0395 0.04692,0.0286 0.05994,0.0534 0.02142,0.0138 0.0159,0.0545 0.05195,0.0537 0.02104,0.0203 0.05177,0.0309 0.05994,0.0641 0.03549,10e-4 0.04591,0.028 0.06793,0.043 0.01366,0.0212 0.03029,0.0394 0.06196,0.0426 0.0067,0.0278 0.04531,0.0236 0.04993,0.0534 0.027,0.007 0.03801,0.0306 0.05994,0.043 0.01383,0.0251 0.04449,0.0334 0.0739,0.043 0.01949,0.0196 0.04896,0.0292 0.06385,0.0534 0.0016,0.0376 0.03663,0.0418 0.03192,0.0857 0.01038,0.0266 0.03407,0.0398 0.05994,0.0509 0.02215,0.0123 0.04009,0.0291 0.05792,0.0454 0.02486,0.0161 0.05319,0.0288 0.07197,0.0509 0.02614,0.0107 0.05541,0.0183 0.05994,0.0507 0.0078,0.047 -0.03297,0.0453 -0.04791,0.0696 0.0066,0.0381 -0.03255,0.0751 0.01787,0.0753 0.02068,0.016 0.02159,0.0518 0.04602,0.0641 0.0357,0.006 0.05867,0.0248 0.06385,0.0614 -0.0025,0.0406 0.04573,0.0305 0.05792,0.0565 0.03445,0.003 0.03873,0.0368 0.05994,0.0534 0.01478,0.0245 0.0071,0.0714 0.03206,0.0857 -0.0013,0.0361 0.03341,0.0362 0.03991,0.0644 0.02632,0.004 0.0421,0.0501 0.02003,0.0721 0.02079,0.0173 0.04758,0.0287 0.07983,0.0346 0.01418,0.04 0.05057,-0.008 0.07794,0.0215 0.02547,0.0118 0.03531,0.0391 0.04194,0.0697 -0.0039,0.04 -0.03651,0.049 0.01598,0.0589 0.04602,-0.007 0.05943,0.0177 0.08387,0.0319 -0.0017,0.0358 -0.02178,0.0674 0.01001,0.0859 -0.01581,0.0458 0.04438,0.0602 0.01203,0.0964 -0.03163,0.0126 -0.01912,0.0433 0.008,0.0534 -0.0022,0.0431 -0.0063,0.0843 -0.018,0.11786 -0.02197,0.0186 -0.02643,0.042 -0.002,0.0614 4.21e-4,0.0312 -0.04286,0.0577 -0.002,0.0777 0.01092,0.0436 -0.03098,0.0366 -0.008,0.0751 0.0465,-0.0156 0.07821,0.0224 0.04993,0.0507 0.01834,0.0486 -0.0313,0.0642 -0.01001,0.0856 0.01918,0.0211 0.05573,0.0249 0.08593,0.035 0.0472,-0.006 0.07593,0.007 0.103897,0.0211 0.0034,0.0336 0.04908,0.0249 0.05994,0.051 0.02453,0.0162 0.07906,0.002 0.08984,0.0322 0.0099,0.0213 0.05946,0.0333 0.03004,0.0641 0.0041,0.0332 0.05042,0.024 0.04993,0.0617 0.01395,0.0225 0.04573,0.0271 0.03991,0.0694 0.01793,0.016 0.0254,0.0423 0.0479,0.0537 0.02528,0.0145 0.04081,0.0387 0.04194,0.0773 7.57e-4,0.0447 -6.24e-4,0.0873 -0.0299,0.10189 -0.02218,0.0173 -0.007,0.072 -0.03004,0.0884 -0.01746,0.0347 -0.0061,0.065 0.01001,0.0909 0.01629,0.0244 0.02268,0.0586 0.02003,0.10188 0.03096,0.002 0.02373,0.0692 0.01001,0.0857 0.03194,0.0251 -0.01877,0.0697 0.018,0.0856 4.89e-4,0.0359 -0.01473,0.0719 -0.008,0.12018 -0.01133,0.0564 0.0213,0.0688 0.01989,0.1153 0.01324,0.0536 -0.02245,0.0582 -0.0299,0.0911 0.002,0.0453 -0.0067,0.0799 -0.02003,0.10989 0.0082,0.0484 -0.03051,0.05 -0.0299,0.0908 0.0068,0.0501 0.0052,0.0534 0,0.10469 -0.01686,0.0289 -0.02013,0.0714 -0.02003,0.11727 -0.01195,0.0398 -0.04682,-0.008 -0.05994,0.0297 -0.0196,0.0555 0.01329,0.0457 0.01001,0.10438 -0.01401,0.0222 -0.03789,0.0344 -0.05994,0.0485 -0.0099,0.0292 -0.03647,0.0417 -0.03991,0.0773 0.01548,0.0258 -8.14e-4,0.0833 0.0299,0.0939 0.02264,0.0149 0.06539,0.01 0.06995,0.0426 0.04368,-0.003 0.04481,0.0358 0.06995,0.051 -0.01011,0.0486 0.01263,0.0644 0.0299,0.0856 0.02981,0.0373 -0.01992,0.0493 -0.01001,0.0961 0.03487,0.004 0.03642,0.0422 0.04005,0.0779 0.0094,0.0291 0.0279,0.0492 0.0299,0.0857 0.01718,0.0223 0.02206,0.0568 0.0299,0.0884 0.0062,0.0338 0.03364,0.0464 0.04804,0.072 0.0096,0.0223 0.03426,0.0295 0.04194,0.0537 0.02498,0.0141 0.03375,0.0444 0.03991,0.0773 0,0.0492 0,0.0984 0,0.1476 0.02884,0.01 0.02213,0.055 0.03004,0.0857 0.01843,0.0187 0.03802,0.0362 0.05792,0.0534 0.01016,0.0248 0.04154,0.0283 0.06182,0.043 0.01521,0.0192 0.04209,0.0268 0.04993,0.0534 0.01281,0.0247 0.06229,0.0127 0.06995,0.0426 0.0207,0.0163 0.04409,0.0298 0.06793,0.043 0.0074,0.03 0.04968,0.0251 0.07197,0.0403 0.01866,0.0124 0.08159,0.0279 0.08984,-0.005 0.04871,-0.0181 0.07125,0.0132 0.05994,0.0639 0.01191,0.0318 0.04558,-0.006 0.06591,0.0297 0.0206,0.0241 0.06947,0.0199 0.05397,0.0802 -0.02321,0.0672 0.07665,0.0114 0.05994,0.0721 0.01271,0.0258 0.01511,0.0619 0.05387,0.0617 0.02859,0.0144 0.08317,0.003 0.08589,0.043 0.02512,0.0145 0.04527,0.0341 0.07592,0.043 0.0224,0.0184 0.06301,0.0186 0.06385,0.0586 0.01075,0.0174 0.04106,0.0647 0.02003,0.0805 -0.0098,0.0302 -0.05314,0.068 0.01001,0.0457 0.03297,-0.006 0.04515,0.0319 0.08391,0.0291 0.02206,0.0171 0.04975,0.0286 0.06385,0.0537 0.0078,0.0264 0.0407,0.0277 0.05195,0.0506 0.03793,0.002 0.05228,0.0284 0.08593,0.035 0.02689,0.0127 0.04158,0.0376 0.04396,0.0749 0.02694,0.008 0.0211,0.048 0.04993,0.0537 0.01071,0.0308 0.01031,0.0726 0.02802,0.0963 0.0115,0.043 -0.02937,0.0491 -0.02802,0.0881 -3.88e-4,0.036 0.03853,0.0327 0.03991,0.0669 0.01513,0.0215 0.02446,0.0487 0.04005,0.0697 0.01272,0.0198 0.03052,0.0715 0.0099,0.0936 -0.04108,-0.003 -0.04603,0.031 -0.06982,0.0457 0.0027,0.0328 -0.05239,0.0398 -0.03004,0.0614 0.02434,0.0112 0.03068,0.0405 0.03991,0.0668 0.02105,0.0174 0.02569,0.0512 0.04005,0.0752 0.03063,0.006 0.03596,0.0364 0.06591,0.0426 0.01183,0.0238 0.03826,0.033 0.06385,0.043 0.01125,0.0226 0.03003,0.0376 0.04804,0.0534 0.01335,0.0277 0.06115,0.021 0.101876,0.0214 0.02752,0.0176 0.06836,0.0219 0.113851,0.0215 0.03351,0.0109 0.08092,0.008 0.111848,0.0215 0.02428,0.0194 0.08558,0.002 0.109866,0.0211 0.04538,0.005 0.111712,-0.0105 0.143812,0.008 0.0396,-0.007 0.06152,0.0407 0.08782,0.0135 0.03856,0.002 0.05874,0.04 0.09797,0.0108 0.04249,-0.0241 0.04866,0.0123 0.09581,0.0107 0.0314,0.0112 0.06568,0.0195 0.09591,0.0319 0.03373,0.008 0.07637,0.006 0.09186,0.0322 0.04254,-0.002 0.06193,0.0345 0.09595,0.0107 0.0412,0.003 0.07417,0.0148 0.103896,0.0295 0.03257,0.009 0.06256,0.0204 0.08984,0.0346 0.04354,0.002 0.07502,0.0152 0.113812,0.0215 0.02617,0.0185 0.07091,0.0185 0.101876,0.0322 0.01917,0.0197 0.06041,0.0174 0.074,0.0427 0.03957,0.004 0.08042,0.008 0.09985,0.0322 0.03297,0.007 0.05553,0.0245 0.07983,0.0403 0.02988,0.0103 0.05259,0.0278 0.08593,0.0346 0.02855,0.0137 0.04512,0.0394 0.08387,0.043 0.01015,0.0266 0.04345,0.0307 0.05994,0.0507 0.02756,0.0107 0.05629,0.0204 0.07996,0.035 0.0046,0.033 0.03199,0.0432 0.03789,0.0748 0.01398,0.0214 0.02394,0.0468 0.04194,0.0641 0.01143,0.0225 0.02982,0.038 0.04804,0.0537 0.0094,0.0224 0.03422,0.0293 0.04194,0.0534 0.02433,0.0119 0.03231,0.0402 0.06591,0.043 0.0121,0.0204 0.03541,0.0295 0.04396,0.0534 0.01884,0.0157 0.02462,0.0445 0.04993,0.0537 0.01169,0.0221 0.02963,0.0379 0.0479,0.0534 0.04081,0.005 0.01168,0.0538 0.03803,0.0537 0.01367,0.0267 0.03547,0.0453 0.04382,0.0774 0.01025,0.0313 0.0047,0.0784 0.02003,0.10459 0.0402,-0.002 0.0279,0.0481 0.04993,0.0641 0.02678,0.008 0.02121,0.0477 0.04993,0.0534 0.0044,0.0328 0.03437,0.0401 0.04993,0.0617 0.01739,0.0177 0.0555,0.0147 0.05994,0.0454 0.02442,0.0125 0.04925,0.0246 0.06793,0.043 0.01292,0.0239 0.04089,0.0328 0.06793,0.0426 0.01565,0.022 0.04188,0.0335 0.06995,0.043 0.02842,0.009 0.03959,0.0351 0.06995,0.0429 0.01457,0.0244 0.06136,0.0163 0.07386,0.0427 0.04885,-0.006 0.05909,0.0263 0.09581,0.0322 0.01663,0.0277 0.06804,0.0207 0.111966,0.0211 0.03143,0.013 0.0723,0.0166 0.111849,0.0215 0.05016,-0.004 0.08624,0.007 0.117818,0.0215 0.0416,0.004 0.07215,0.0181 0.113812,0.0215 0.05293,-0.006 0.07445,0.0194 0.12993,0.0108 0.0559,0 0.111803,0 0.167705,0 0.01693,0.0222 0.02302,0.0553 0.06402,0.0534 0.01276,0.0269 0.05354,0.0257 0.07588,0.043 0.03038,0.0289 -0.01439,0.0714 0,0.11734 -0.01472,0.0532 0.03444,0.0425 0.03991,0.0754 0.05238,-0.01 0.04698,0.0659 0.03004,0.0641 0.01448,0.0226 0.02997,0.0442 0.04993,0.0614 0.02211,0.0125 0.0397,0.0294 0.05792,0.0457 0.03126,0.007 0.03783,0.039 0.06182,0.0534 0.02504,-0.0113 0.06006,-0.004 0.08795,0.0107 0.0416,-2.4e-4 0.0722,0.0105 0.0919,0.0323 0.0438,-0.002 0.0497,0.0347 0.0839,0.0426 0.0549,-0.01 0.0578,0.0324 0.11381,0.0215 0.0378,0.007 0.0846,-0.0325 0.11198,0 0.0488,0.002 -0.0161,0.0777 0.0339,0.0641 0.0293,0.0297 0.0777,-0.004 0.11593,0 0.0349,-0.0157 -0.0106,-0.0522 0.026,-0.0641 0.0298,10e-4 0.0467,0.0493 0.0239,0.0721 -0.0345,-5.2e-4 -0.0535,0.0395 -0.03,0.0672 0.0291,-10e-4 0.0885,-0.0322 0.09,0.016 0.0207,0.0139 0.0261,0.0433 0.0559,0.0481 0.0244,0.0194 0.0156,0.0718 0.0239,0.10715 0.0352,-0.007 0.12345,0.0196 0.09,-0.0267 -6.9e-4,-0.0412 0.0583,-0.0226 0.0839,-0.0374 0.0334,-0.0365 0.0514,0.0236 0.0958,0.0104 0.0315,-0.01 0.0557,-0.0268 0.0919,-0.0319 0.0369,0.006 0.0788,0.007 0.10794,0.0215 -0.005,0.0382 0.12143,-0.003 0.10986,0.0104 0.0245,-0.0207 0.0727,-4.5e-4 0.0999,0.008 0.0223,0.0123 0.0396,0.0295 0.0579,0.0457 0.01,0.0281 0.0481,0.0272 0.07,0.043 0.0179,0.0226 0.0723,0.009 0.0818,0.0398 0.0317,0.01 0.0675,0.0157 0.0898,0.035 0.0271,0.007 0.025,0.0434 0.0599,0.0426 0.0185,0.0224 0.0609,0.0211 0.08,0.043 0.0292,0.008 0.0494,0.0257 0.0699,0.0426 0.0471,0.002 0.1042,-0.007 0.13572,0.0107 0.0231,0.0146 0.0388,0.0366 0.07,0.043 0.0251,0.0131 0.0464,0.03 0.072,0.0426 0.006,0.0347 0.0647,0.0175 0.10188,0.0215 0.0219,0.0232 0.0874,0.003 0.11381,0.0215 0.0352,0.01 0.069,0.0213 0.11381,0.0215 0.019,0.0393 0.0757,-0.0255 0.092,0.0107 0.05,-0.009 0.0534,0.0277 0.0898,0.0319 0.032,0.009 0.004,0.0785 0.0599,0.0641 0.0144,0.0226 0.0512,0.0228 0.0599,0.051 0.0249,0.003 0.0257,0.0607 0.0479,0.035 0.0345,-10e-4 0.0725,-0.0362 0.1,-0.0107 0.0166,0.0182 0.0445,0.0252 0.0618,0.0426 0.007,0.0295 0.0503,0.0223 0.0499,0.0589 0.0242,0.007 0.0314,0.0725 0.002,0.0805 -0.0145,0.041 0.0259,0.0433 0.038,0.0641 0.009,0.0333 0.0652,0.0154 0.0499,-0.0372 0.0203,-0.0219 0.0578,-0.0267 0.0998,-0.0269 -2.9e-4,-0.0535 0.0446,-0.0226 0.0659,-0.0108 0.0291,0.0104 0.0625,0.034 0.0839,0.003 0.0224,-0.0281 0.0428,0.0152 0.0599,0.005 0.03,0.008 0.0476,0.0377 0.07,0.006 0.0431,-0.0141 0.0646,0.0161 0.0998,0.0187 0.0245,0.0137 0.0294,0.0469 0.0719,0.0427 0.036,-3.8e-4 0.0298,0.0415 0.064,0.043 0.028,0.0264 0.049,0.004 0.0739,0.0212 0.0514,0.004 0.0918,-0.003 0.13181,-0.0104 0.0455,0.003 0.0844,-5.8e-4 0.0979,-0.0295 0.0233,-0.017 0.06,-0.0206 0.0859,-0.035 0.019,-0.0223 0.0553,-0.0272 0.0839,-0.0399 0.0339,-0.007 0.0778,-0.005 0.0998,-0.0242 0.026,-0.005 0.0525,-0.0397 0.08,-0.0108 0.01,0.0278 0.029,0.0457 0.0399,0.0721 0.0169,0.0154 0.0772,0.0262 0.0399,0.0644 0.0259,0.009 0.051,0.0192 0.0599,0.0454 0.0459,-0.003 0.0646,0.0221 0.0978,0.0322 0.024,0.0142 0.0673,0.009 0.072,0.0426 0.0328,0.0248 0.0674,-0.0163 0.0978,0.0108 0.0235,0.0115 0.0399,0.03 0.062,0.043 -0.0111,0.0496 0.0172,0.0598 0.0299,0.0856 0.0352,0.002 0.0403,0.034 0.058,0.0534 0.007,0.0313 0.0575,0.0191 0.0718,0.043 0.0439,-0.006 0.0554,0.0197 0.07,0.0426 0.0309,0.01 0.0586,0.0228 0.0898,0.0323 0.004,0.0461 0.0895,0.01 0.12785,0.0214 0.0288,-0.009 0.0438,-0.0315 0.07,-0.043 0.0606,0 0.12114,0 0.18171,0 0.0179,-0.0191 0.0338,-0.0403 0.0499,-0.0614 0.0172,-0.0173 0.0398,-0.0294 0.0579,-0.0457 0.03,-0.0149 0.0639,-0.0263 0.11399,-0.0211 0.0568,0.008 0.0858,-0.0119 0.13582,-0.0108 0.0402,0.007 0.10963,-0.0146 0.13174,0.0108 0.0322,-0.0153 0.0847,-0.0104 0.13189,-0.0108 0.0294,0.0131 0.0645,0.0205 0.10588,0.0215 0.0279,0.0127 0.0612,0.0199 0.0818,0.0399 0.0166,0.019 0.0451,0.0262 0.0401,0.067 -0.0143,0.031 -0.0113,0.0636 0.018,0.0751 0.0234,0.0114 0.0303,0.0394 0.0618,0.0426 1e-4,0.0329 0.0815,0.0266 0.0999,0.0135 0.0409,1.8e-4 0.0681,-0.0134 0.09,-0.0322 -0.007,-0.0455 0.0254,-0.0511 0.0479,-0.0668 0.0367,-0.006 0.0389,-0.0455 0.0839,-0.0427 0.0417,0.005 0.0402,-0.0323 0.0659,-0.043 0.0129,-0.024 0.0413,-0.0326 0.0679,-0.043 0.0299,-0.0114 0.0436,-0.039 0.0919,-0.0319 0.0392,0.005 0.0721,0.0164 0.12187,0.0108 0.0239,0.0231 0.0723,0.0217 0.11982,0.0211 0.0209,0.0253 0.089,0.003 0.1279,0.0108 0.0254,-0.0154 0.0712,-0.0105 0.0798,-0.0427 0.0104,-0.0245 0.0415,-0.0284 0.062,-0.043 0.025,-0.013 0.0322,-0.0438 0.0499,-0.0641 0.025,-0.0259 0.0564,0.0138 0.0779,-0.0215 0.0159,-0.0273 0.0119,-0.0746 0.0119,-0.11787 0.0221,-0.0192 0.0526,-0.0299 0.0919,-0.0319 0.0236,-0.0189 0.0852,2.4e-4 0.10592,-0.0215 0.0551,-0.009 0.0766,0.0158 0.12791,0.0108 0.0263,0.0163 0.056,0.0291 0.0958,0.0319 0.0438,-0.008 0.0405,-10e-4 0.0879,-0.0104 0.0254,0.0321 0.069,-0.0179 0.096,0.0104 0.0255,-0.0312 0.0659,0.0143 0.0898,-0.0104 0.0204,0.0157 0.024,-1.3e-4 0.0659,0 0.0223,0.0203 0.0622,0.023 0.0879,0.0398 0.0346,6.6e-4 0.10418,0.0123 0.1299,-0.005 0.0543,-0.007 0.12072,-9.3e-4 0.17968,-0.003 0.0158,-0.0224 0.0343,-0.0422 0.072,-0.0426 0.0427,0.006 0.10847,-0.0114 0.13771,0.008 0.0139,-0.011 0.075,-7.3e-4 0.0699,-0.0402 0.0219,-0.0182 0.0648,-0.0154 0.088,-0.0322 0.0242,-0.0136 0.0679,-0.008 0.0819,-0.0319 0.01,-0.0297 0.0482,-0.0311 0.0759,-0.043 0.0258,-0.013 0.0558,-0.0218 0.0739,-0.0426 0.0452,-10e-4 0.066,-0.0269 0.1179,-0.0215 0.0447,0.005 0.0522,-0.0279 0.0879,-0.0322 0.0328,-0.0253 0.0735,8.6e-4 0.11382,0 0.0533,0 0.10659,0 0.15989,0 0.002,0.0149 0.0641,-0.003 0.0698,-0.0215 0.0408,-0.005 0.10438,0.012 0.12787,-0.0107 0.0463,0.006 0.0616,-0.0194 0.09,-0.0319 0.0377,-0.007 0.0845,0.0325 0.11175,0 0.0215,-0.0157 0.0419,-0.0326 0.0579,-0.0537 0.008,-0.0277 0.0158,-0.0555 0.0321,-0.0749 0.0378,-0.002 0.0325,-0.0474 0.0878,-0.0319 0.0528,-0.009 0.0549,0.0325 0.10987,0.0211 0.024,0.006 0.0921,0.0262 0.11185,0 0.0455,-0.005 0.0701,0.0114 0.0898,0.0323 0.0332,0.0102 0.0711,0.0157 0.098,0.0322 0.0441,-0.002 0.0996,0.007 0.12787,-0.0108 0.008,-0.0325 0.0668,-0.0145 0.0898,-0.0322 0.0194,-0.0194 0.0599,-0.0177 0.0739,-0.0426 0.0203,-0.0198 0.0493,-0.0308 0.08,-0.0402 0.0299,-0.0135 0.0759,-0.0108 0.10582,-0.0242 0.0115,-0.0243 0.0215,-0.0501 0.054,-0.0534 0.0203,-0.0172 0.0277,-0.0471 0.0479,-0.0644 0.0206,-0.017 0.0518,-0.0233 0.07,-0.0427 0.01,-0.0222 0.0342,-0.0295 0.0419,-0.0537 0.0247,-0.0157 0.0619,-0.0189 0.0679,-0.0534 0.006,-0.0342 0.0663,-0.0138 0.0878,-0.0322 0.0111,-0.0237 0.0413,-0.0285 0.054,-0.0507 0.0176,-0.0178 0.0517,-0.0192 0.0499,-0.0565 0.0291,-0.0152 0.0772,-0.0115 0.11193,-0.0211 0.008,-0.0326 0.0229,-0.0579 0.038,-0.0832 0.0206,-0.0112 0.0275,-0.0361 0.0499,-0.0454 0.0173,-0.0239 0.0187,-0.0637 0.0379,-0.0857 -0.005,-0.0449 0.0524,-0.0269 0.052,-0.0669 0.0119,-0.0255 0.0305,-0.0444 0.0399,-0.0724 0.0273,-0.007 0.0381,-0.0303 0.0599,-0.0427 -10e-4,-0.0361 0.0336,-0.036 0.0399,-0.0644 0.0341,-0.004 0.0294,-0.0465 0.0501,-0.0641 0.019,-0.0269 0.007,-0.0844 0.0199,-0.11759 0.0145,-0.0249 0.0411,-0.0377 0.03,-0.0881 -0.0139,-0.0275 -0.004,-0.0792 -0.03,-0.0942 -0.007,-0.0311 -0.0202,-0.0568 -0.0299,-0.0856 -0.0259,-0.0115 -0.0287,-0.0461 -0.048,-0.0641 0.002,-0.048 -0.009,-0.0826 -0.0119,-0.1256 -7.8e-4,-0.0471 -0.0168,-0.0789 -0.01,-0.13353 0.0185,-0.0207 0.0168,-0.085 -0.018,-0.0837 -0.0285,-0.0248 0.004,-0.058 -0.002,-0.0961 -0.0235,-0.0251 -0.003,-0.0942 -0.01,-0.13582 10e-4,-0.0368 -0.0369,-0.0562 -0.01,-0.0892 0.0358,-0.006 0.0274,-0.0568 0.0299,-0.0964 0.0301,-0.0276 -0.005,-0.0784 0,-0.11481 0.002,-0.0417 -0.009,-0.0955 0.02,-0.1102 0.0145,-0.0191 -0.009,-0.0642 0,-0.10903 0.006,-0.0425 -0.0114,-0.10812 0.008,-0.1371 0.009,-0.028 0.0388,-0.0542 0.002,-0.0748 -0.0304,-0.0116 -0.032,-0.0521 -0.03,-0.0962 -0.0256,-0.0131 -0.008,-0.0692 -0.0299,-0.0861 -0.0108,-0.0295 -0.0237,-0.0569 -0.03,-0.0909 -0.0321,-0.007 -0.009,-0.0701 -0.0299,-0.0884 -0.001,-0.0491 -0.002,-0.0972 0.01,-0.13349 0.002,-0.0446 0.0164,-0.0758 0.01,-0.12841 0.0173,-0.0234 0.0109,-0.0705 0.028,-0.0941 0.0271,-0.0377 -0.0109,-0.0414 -0.008,-0.0854 -0.0158,-0.0213 -0.0149,-0.0859 0,-0.10732 -0.0369,-0.008 -0.0134,-0.0764 -0.02,-0.11468 -0.0154,-0.0259 -0.0201,-0.0626 -0.0299,-0.0941 0.0146,-0.0579 -0.0272,-0.0592 -0.02,-0.10961 0.0222,-0.0173 0.007,-0.072 0.03,-0.0886 -0.002,-0.0439 0.009,-0.0757 0.0199,-0.10677 0.0455,0.004 0.033,-0.0492 0.048,-0.0752 0.007,-0.0355 0.008,-0.0758 0.0219,-0.10434 -0.013,-0.034 -0.0104,-0.0837 -0.01,-0.13107 0.0238,-0.0248 0.003,-0.0942 0.01,-0.13582 0.0102,-0.0287 0.0449,-0.033 0.0599,-0.0569 0.0188,-0.0265 -0.001,-0.0916 0.018,-0.11786 0.002,-0.0394 0.025,-0.0591 0.0219,-0.1041 0.0132,-0.0175 0.0312,-0.0648 0.01,-0.0859 -0.0185,-0.0285 -0.007,-0.0871 -0.01,-0.13097 0.0201,-0.0213 0.004,-0.0786 0.03,-0.094 0.0133,-0.0252 0.014,-0.063 0.0299,-0.0856 0.004,-0.0348 0.0474,-0.03 0.0599,-0.0561 0.006,-0.0364 -0.016,-0.10078 0.02,-0.10715 0.0113,-0.0225 0.0297,-0.0379 0.0479,-0.0534 0.0149,-0.0254 0.025,-0.0556 0.0219,-0.0989 0.008,-0.0369 0.0132,-0.0775 0.01,-0.12608 0.0289,-0.005 0.0238,-0.0451 0.0499,-0.0534 0.0111,-0.0238 0.0344,-0.0353 0.0401,-0.0645 0.0187,-0.0157 0.0248,-0.044 0.0499,-0.0534 0.0146,-0.0257 0.0585,-0.022 0.0778,-0.043 0.0265,-0.0118 0.059,-0.0174 0.072,-0.0427 0.0316,-0.006 0.0327,-0.0417 0.0579,-0.0537 0.0136,-0.022 0.0362,-0.035 0.0319,-0.0748 0.0221,-0.0193 0.002,-0.0804 0.028,-0.0964 -0.002,-0.0477 0.009,-0.0826 0.012,-0.12559 1e-5,-0.0424 -0.007,-0.0916 0.0199,-0.1074 0.0436,-0.005 -0.002,-0.0487 -0.01,-0.0641 -0.0311,-0.01 -0.0607,-0.0207 -0.0499,-0.0722 -0.0127,-0.0446 0.0198,-0.0889 0.002,-0.11256 -0.0129,-0.0475 0.0151,-0.0717 0.008,-0.12005 0.009,-0.0349 0.0565,-0.0139 0.07,0.002 0.0215,0.0119 0.0605,0.0461 0.0898,0.0242 0.0315,-0.0122 0.10206,0.0145 0.10986,-0.0215 0.0224,-0.012 0.0398,-0.029 0.0579,-0.0453 0.0277,-0.0131 0.0612,-0.0203 0.082,-0.0403 0.0356,0.006 0.0413,-0.0602 0.0119,-0.0669 -0.0208,-0.0175 -0.0171,-0.0594 -0.0319,-0.0829 -0.0396,-0.008 -0.002,-0.0646 -0.018,-0.0776 -0.011,-0.0273 -0.017,-0.0596 -0.0399,-0.0749 -0.0157,-0.0264 -0.0124,-0.0634 0.006,-0.0859 0.0119,-0.0428 -0.0295,-0.0489 -0.0279,-0.0881 0.0305,-0.0229 0.007,-0.042 0.01,-0.0881 -0.0148,-0.0296 -0.009,-0.0797 -0.01,-0.12327 0.0248,-0.01 0.0322,-0.0369 0.0499,-0.0537 0.0125,-0.0295 0.0298,-0.0542 0.0299,-0.0961 0.0111,-0.0562 -0.0268,-0.0633 -0.02,-0.11516 -0.0235,-0.0172 -0.0576,-0.0237 -0.0979,-0.0242 -0.0189,-0.0166 -0.0237,-0.0473 -0.0419,-0.0644 -0.01,-0.0286 -0.0112,-0.0659 -0.0299,-0.0857 0.002,-0.0395 -0.0168,-0.0585 -0.038,-0.0749 -0.009,-0.0259 -0.0377,-0.0322 -0.062,-0.043 0,-0.0642 0,-0.12851 0,-0.19278 -0.0285,-0.008 -0.0369,-0.0429 -0.0199,-0.0693 0.0286,-0.0414 -0.0177,-0.0429 -0.02,-0.0804 -0.0238,-0.0156 -0.0346,-0.0441 -0.0858,-0.0323 -0.0387,5.5e-4 -0.0524,-0.024 -0.0639,-0.0506 -0.0196,-0.0304 -0.0424,-0.0202 -0.0819,-0.0135 -0.0242,-0.01 -0.0197,-0.0478 -0.048,-0.0534 -0.0197,-0.023 -0.0484,-0.037 -0.0958,-0.0322 -0.0128,0.0168 -0.0509,0.0558 -0.064,0.0107 -0.0234,-0.0204 -0.062,-0.0255 -0.1098,-0.0215 -0.004,-0.0376 -0.0676,-0.0147 -0.07,-0.0534 -0.0314,-0.008 -0.0462,-0.033 -0.0598,-0.059 0.0198,-0.0325 -0.001,-0.0581 -0.018,-0.0804 -0.0124,-0.0219 -0.032,-0.0366 -0.052,-0.051 -0.0348,-0.003 -0.053,-0.0233 -0.08,-0.0346 -0.0289,-0.009 -0.0389,-0.0369 -0.0599,-0.0537 -0.0164,-0.0219 -0.0154,-0.0611 -0.0399,-0.0748 -0.0298,-0.008 -0.0617,-0.0134 -0.0699,-0.0427 -0.0369,-0.004 -0.039,-0.0424 -0.0898,-0.0322 -0.0121,-0.0286 -0.0635,-0.0179 -0.0898,-0.0322 -0.022,-0.0182 -0.0515,-0.0289 -0.0779,-0.0426 -0.0168,-0.0262 -0.0679,-8.6e-4 -0.072,0.0215 -0.0247,0.0152 -0.0531,0.0267 -0.0798,0.0398 -0.0109,0.0193 -0.08,0.0241 -0.08,-0.008 -0.0307,-0.009 -0.0672,-0.0125 -0.0878,-0.0318 -0.0213,-0.0139 -0.016,-0.0545 -0.0519,-0.0537 -0.005,-0.0299 -0.0428,-0.0261 -0.0499,-0.0534 -0.0203,-0.0199 -0.0293,-0.051 -0.0401,-0.0804 -0.014,-0.0243 -0.0288,-0.0477 -0.0399,-0.0749 -0.0137,-0.0229 -0.0303,-0.0427 -0.0399,-0.0697 -0.0255,-0.0128 -0.0194,-0.0571 -0.0399,-0.0748 -0.007,-0.0342 -0.0225,-0.06 -0.038,-0.0856 -0.005,-0.0339 -0.0295,-0.0489 -0.0319,-0.0857 -0.0226,-0.0149 -0.0244,-0.0505 -0.0479,-0.0645 -0.0173,-0.0192 -0.0163,-0.0566 -0.056,-0.0534 -0.0146,-0.0203 -0.0408,-0.0291 -0.0459,-0.0589 -0.0241,-0.0143 -0.0464,-0.0305 -0.07,-0.0454 -0.0349,-0.003 -0.0528,-0.0238 -0.08,-0.0349 -0.0143,-0.0257 -0.0183,-0.0618 -0.0559,-0.0641 -0.0108,-0.0242 -0.0412,-0.0288 -0.054,-0.051 -0.0205,-0.015 -0.0376,-0.0336 -0.0399,-0.0668 -0.0258,-0.0125 -0.0191,-0.0575 -0.0399,-0.0749 -0.002,-0.0387 -0.0149,-0.0676 -0.03,-0.0936 -0.007,-0.0326 -0.0201,-0.0588 -0.0299,-0.0884 -0.0224,-0.0182 -0.0386,-0.0425 -0.0599,-0.0617 -0.0191,-0.0229 0.004,-0.0884 -0.0379,-0.0881 -0.0593,0.0183 -0.0488,-0.0332 -0.072,-0.0509 -0.0161,-0.0185 -0.0254,-0.044 -0.0479,-0.0562 -0.0213,-0.0139 -0.016,-0.0545 -0.052,-0.0537 -0.0239,-0.0156 -0.0506,-0.0285 -0.0759,-0.0426 -0.012,-0.0237 -0.0383,-0.0332 -0.064,-0.043 0.005,-0.0397 -0.0211,-0.0483 -0.0399,-0.0641 -0.005,-0.0322 -0.0265,-0.0483 -0.0399,-0.0721 -0.0259,-0.0118 -0.0598,-0.0155 -0.07,-0.043 0.004,-0.0383 -0.0311,-0.0382 -0.0399,-0.0641 -0.009,-0.0286 -0.0382,-0.0367 -0.0399,-0.0725 -0.0178,-0.0188 -0.0387,-0.0344 -0.0401,-0.0696 -0.0248,-0.01 -0.0321,-0.0368 -0.0499,-0.0534 -0.003,-0.0337 -0.049,-0.0249 -0.0599,-0.051 -0.003,-0.0357 -0.0148,-0.0635 -0.0399,-0.0776 -0.0188,-0.0157 -0.0248,-0.0441 -0.0499,-0.0534 -0.009,-0.0298 -0.0151,-0.0615 -0.0399,-0.0749 -0.008,-0.0308 -0.0246,-0.0523 -0.0401,-0.0753 -0.001,-0.0436 -0.0214,-0.0684 -0.0199,-0.11481 0.005,-0.0446 -0.0108,-0.11075 0.008,-0.14202 0.009,-0.029 0.027,-0.0495 0.0399,-0.0748 -0.0129,-0.055 0.0799,-0.004 0.062,-0.0643 -0.0305,-0.0245 0.0144,-0.0765 -0.008,-0.0966 -0.0134,-0.0105 -0.0593,-0.0616 -0.052,8e-5 -0.0236,0.0424 -0.0509,0.01 -0.02,-0.0241 -0.022,-8.3e-4 -0.0703,-0.0592 -0.0599,0.003 -0.0582,0.007 0.007,-0.0582 -0.0559,-0.0537 -0.0275,-0.0439 -0.0431,0.0251 -0.054,-0.0215 -0.0428,-0.008 0.004,-0.0558 -0.0199,-0.0721 -0.007,-0.0327 -0.0245,-0.054 -0.04,-0.0777 -0.001,-0.04 -0.0203,-0.0625 -0.0279,-0.0964 -0.009,-0.0244 -0.0388,-0.0285 -0.0419,-0.059 -0.0183,-0.0211 -0.004,-0.0747 -0.038,-0.0801 -0.0138,-0.0208 -0.0336,-0.0355 -0.0419,-0.0617 -0.0168,-0.0186 -0.0357,-0.035 -0.0499,-0.0562 -0.0217,-0.0119 -0.035,-0.0322 -0.0499,-0.0509 -0.012,-0.0262 -0.062,-0.0145 -0.08,-0.0346 -0.0242,-0.0127 -0.0493,-0.0246 -0.0678,-0.043 -0.0406,-7e-5 -0.0635,-0.018 -0.09,-0.0322 -0.054,0.006 -0.0873,-0.008 -0.13178,-0.0108 -0.0115,-0.0249 -0.0377,-0.0353 -0.04,-0.0693 -0.009,-0.0287 -0.0395,-0.0351 -0.0399,-0.0721 -0.006,-0.0363 -0.009,-0.10937 -0.008,-0.0939 -0.0196,-0.0304 -0.006,-0.0595 -0.002,-0.0963 0.0273,-0.0223 -0.0251,-0.0502 -0.0598,-0.043 -0.0407,-0.002 -0.0407,-0.0448 -0.04,-0.0878 -0.0175,-0.0249 -0.006,-0.0786 -0.0199,-0.10739 -0.0198,-0.0214 -0.008,-0.0745 -0.03,-0.0935 0.008,-0.0552 -0.0146,-0.0794 -0.01,-0.13118 10e-4,-0.0473 0.002,-0.0942 -0.01,-0.1285 0.002,-0.0452 -0.006,-0.1005 0.01,-0.13107 -7.3e-4,-0.0425 -0.008,-0.0786 -0.0199,-0.10986 0,-0.0509 0,-0.10188 0,-0.15284 -0.0238,-0.0248 -0.003,-0.0942 -0.01,-0.13582 -0.007,-0.0404 0.0137,-0.10819 -0.01,-0.13179 -0.0256,-0.0306 0.005,-0.0668 0,-0.10716 0.0335,-0.0177 0.0129,-0.0611 0.01,-0.0961 0.0182,-0.0195 0.0384,-0.0397 0.0199,-0.0696 -0.004,-0.0355 -0.0195,-0.0594 -0.0299,-0.0884 -0.0102,-0.036 -0.004,-0.0882 -0.018,-0.12061 -0.005,-0.0376 -0.0197,-0.0661 -0.0219,-0.1068 -0.016,-0.0263 -0.0188,-0.0659 -0.02,-0.10708 -0.0191,-0.0192 -0.0165,-0.0602 -0.0399,-0.0753 -0.002,-0.0367 -0.0374,-0.0396 -0.03,-0.0856 -0.0166,-0.0205 -0.03,-0.0442 -0.0579,-0.0534 -0.0188,-0.0167 -0.0237,-0.0472 -0.0419,-0.0644 -0.002,-0.035 -0.0339,-0.0408 -0.0399,-0.0721 -0.0165,-0.019 -0.0452,-0.0258 -0.0399,-0.0667 -0.0307,-0.004 -0.0135,-0.0564 -0.04,-0.0647 -0.005,-0.0322 -0.0266,-0.0481 -0.0399,-0.0721 -0.0227,-0.0147 -0.0303,-0.0443 -0.0399,-0.0721 -0.0213,-0.0188 0.004,-0.0846 -0.0399,-0.0804 -0.0114,-0.0269 -0.0192,-0.0574 -0.04,-0.0749 -0.0114,-0.0226 -0.0298,-0.0381 -0.0479,-0.0537 -0.0351,-0.003 -0.0262,-0.0498 -0.0419,-0.0721 -0.009,-0.0252 -0.0295,-0.0398 -0.0479,-0.0561 -0.01,-0.0223 -0.0344,-0.0294 -0.0419,-0.0537 -0.0269,-0.007 -0.0381,-0.0303 -0.0599,-0.0426 -0.0149,-0.0197 -0.0422,-0.027 -0.0499,-0.0537 -0.0269,-0.007 -0.0382,-0.0301 -0.0599,-0.0426 -0.004,-0.0335 -0.0416,-0.0329 -0.0499,-0.0617 -0.0206,-0.0141 -0.0347,-0.0348 -0.048,-0.0562 -0.0288,-0.006 -0.0396,-0.0303 -0.0618,-0.043 -0.007,-0.0281 -0.029,-0.0405 -0.04,-0.0641 -0.0248,-0.01 -0.0321,-0.0368 -0.0499,-0.0534 -0.0121,-0.0256 -0.0269,-0.0485 -0.0379,-0.0752 -0.006,-0.0296 -0.0292,-0.0415 -0.0419,-0.0641 -0.004,-0.0333 -0.0322,-0.043 -0.038,-0.0749 -0.0129,-0.0241 -0.0412,-0.0327 -0.0679,-0.043 -0.0185,-0.0169 -0.0454,-0.0255 -0.0638,-0.0426 -0.0204,-0.0172 -0.0406,-0.0347 -0.07,-0.043 -0.006,-0.0309 -0.051,-0.0227 -0.0599,-0.0506 -0.0391,10e-4 -0.0549,-0.0204 -0.07,-0.043 -0.0297,-0.008 -0.0478,-0.0272 -0.0698,-0.0426 -0.0271,-0.0106 -0.0459,-0.0294 -0.07,-0.043 -0.0332,-0.006 -0.0453,-0.0339 -0.0839,-0.035 -0.0255,-0.0127 -0.0398,-0.0365 -0.0718,-0.0426 -0.0255,-0.0102 -0.0316,-0.0397 -0.064,-0.043 -0.0129,-0.0259 -0.0413,-0.0364 -0.0739,-0.0426 -0.0432,7.6e-4 -0.0839,-10e-4 -0.10592,-0.0215 -0.0386,-0.002 -0.0456,-0.0358 -0.0898,-0.0322 -0.0154,-0.0279 -0.0634,-0.0231 -0.0898,-0.0399 -0.0478,-0.006 -0.10754,-8.7e-4 -0.15993,-0.003 -0.0181,0.0259 -0.0627,-0.009 -0.0778,-0.0215 -0.0181,-0.0192 -0.0233,-0.057 -0.0579,-0.0322 -0.0221,0.023 -0.0672,0.023 -0.11385,0.0214 -0.0362,0.008 -0.0764,0.0174 -0.10993,0 -0.0122,0.0441 -0.0446,0.004 -0.07,0 -0.0158,-0.0225 -0.0342,-0.0422 -0.0719,-0.0426 -0.0173,-0.0232 -0.0352,-0.0459 -0.0679,-0.0537 -0.0489,0.005 -0.0709,-0.0167 -0.10986,-0.0215 -0.0153,-0.0191 -0.042,-0.0268 -0.0499,-0.0533 -0.0343,-0.003 -0.0377,-0.0362 -0.0679,-0.043 -0.0207,-0.023 -0.0847,-0.003 -0.10187,-0.0291 -0.0235,-0.0117 -0.0482,-0.0222 -0.0599,-0.0458 -0.0355,-0.001 -0.0456,-0.0281 -0.0679,-0.0426 -0.0295,-0.008 -0.0519,-0.0235 -0.07,-0.043 -0.008,-0.0265 -0.0404,-0.028 -0.0519,-0.0506 -0.0306,-0.004 -0.0349,-0.0343 -0.0579,-0.0458 -0.0236,-0.0145 -0.0549,-0.0214 -0.0718,-0.0426 -0.0363,-0.004 -0.0482,-0.032 -0.08,-0.0403 -0.0272,0.0224 -0.0343,-0.0238 -0.0799,-0.0135 -0.0599,0 -0.11985,0 -0.17978,0 -0.009,0.026 -0.0347,0.0344 -0.0499,0.0537 -0.0699,0 -0.13982,0 -0.20972,0 -0.027,-0.0106 -0.0388,-0.0366 -0.07,-0.043 -0.0205,-0.0172 -0.0407,-0.0347 -0.07,-0.043 -0.0147,-0.0221 -0.0512,-0.0225 -0.0599,-0.0506 -0.0219,-0.0316 -0.0291,-0.0122 -0.0778,-0.0135 -0.0195,-0.0247 -0.0845,-0.004 -0.12186,-0.0107 -0.0194,-0.0264 -0.0938,0.002 -0.11584,-0.0215 -0.0315,-0.0104 -0.0745,-0.009 -0.0939,-0.0319 -0.0406,-0.004 -0.0708,-0.0181 -0.11193,-0.0214 -0.0176,-0.018 -0.0897,-0.0161 -0.1078,0 -0.0188,0.0208 -0.0474,0.0319 -0.0759,0.043 -0.0178,0.0177 -0.0347,0.0364 -0.064,0.0426 -0.0223,0.018 -0.0626,0.0179 -0.0778,0.043 -0.0103,0.029 -0.0411,0.0374 -0.086,0.0319 -0.0435,0.002 -0.0614,-0.0224 -0.0938,-0.0319 -0.0305,-0.0133 -0.0887,0.001 -0.10187,-0.0295 -0.0365,-0.002 -0.0747,-0.002 -0.08,-0.0349 -0.0365,-0.007 -0.0585,-0.0288 -0.10986,-0.0212 -0.0178,-0.0198 -0.0695,-0.006 -0.0698,-0.043 -0.0355,-0.007 -0.0618,-0.0237 -0.096,-0.0323 -0.0354,-0.009 -0.0835,-0.005 -0.11188,-0.0211 -0.055,0.008 -0.0816,-0.0121 -0.1298,-0.0107 -0.0389,-0.007 -0.0619,-0.0297 -0.11583,-0.0215 -0.0248,-0.0172 -0.0676,-0.0164 -0.0859,-0.0402 -0.0398,-0.004 -0.0576,-0.0302 -0.10788,-0.0239 -0.02,-0.0177 -0.0546,-0.0207 -0.0699,-0.043 -0.024,-0.0143 -0.0549,-0.0217 -0.072,-0.043 -0.0371,-0.006 -0.0737,-0.0123 -0.0999,-0.0292 -0.032,-0.006 -0.0491,-0.0275 -0.08,-0.0349 -0.0151,-0.032 -0.10435,0.0102 -0.11974,-0.0215 -0.048,0.007 -0.0716,-0.01 -0.09,-0.0319 -0.0318,0.0151 -0.0832,0.0104 -0.12976,0.0107 -0.0215,0.0173 -0.0369,0.0409 -0.0739,0.0427 -0.049,-0.004 -0.087,0.003 -0.11391,0.0214 -0.019,0.0231 -0.0569,0.0272 -0.0939,0.0323 -0.0167,0.029 -0.0787,0.0125 -0.1078,0.0291 -0.0241,0.0193 -0.0787,0.008 -0.10596,0.0242 -0.0319,-0.0121 -0.0682,-0.0199 -0.0999,-0.0322 -0.0367,-0.009 -0.0762,-0.0151 -0.11584,-0.0211 -0.027,-0.0274 -0.0528,0.0219 -0.0978,0.0104 -0.0495,0.003 -0.0749,-0.0186 -0.12993,-0.0104 -0.0299,-0.0159 -0.0864,-0.005 -0.11576,-0.0215 -0.0519,0.0112 -0.0519,-0.0296 -0.09,-0.0322 -0.0187,-0.0168 -0.0452,-0.0258 -0.0639,-0.0427 -0.009,-0.026 -0.0348,-0.0343 -0.0499,-0.0537 -0.0323,-0.008 -0.0655,-0.0157 -0.09,-0.0318 -0.0157,-0.0219 -0.0479,-0.0274 -0.06996,-0.043 -0.01573,-0.022 -0.02272,-0.0528 -0.0598,-0.0534 -0.02573,-0.0148 -0.05537,-0.0257 -0.05994,-0.0617 -0.03062,-0.004 -0.0349,-0.034 -0.05792,-0.0454 0.0025,-0.0413 -0.05311,-0.0245 -0.05195,-0.0645 -0.03182,-0.0101 -0.05292,-0.0309 -0.09392,-0.0318 -0.02091,-0.0112 -0.09736,-0.0229 -0.115932,0 -0.01862,0.0182 -0.05061,0.023 -0.06779,0.0426 -0.02079,0.0162 -0.03766,0.0363 -0.06793,0.0429 -0.01871,0.0168 -0.04548,0.0257 -0.06398,0.0427 -0.007,0.035 -0.06786,0.0162 -0.09392,0.0322 -0.02019,0.0213 -0.08947,0.0118 -0.111751,0 -0.05567,0.008 -0.08308,-0.0121 -0.131952,-0.0108 -0.01629,-0.0199 -0.03367,-0.0388 -0.06587,-0.0426 -0.03603,0.0111 -0.07446,0.0135 -0.109865,0 -0.04252,-0.002 -0.05823,-0.0306 -0.11179,-0.0215 -0.05466,-0.006 -0.08864,0.008 -0.133897,0.0108 -0.02519,0.0154 -0.06685,0.0143 -0.08984,0.0319 -0.02637,0.0157 -0.06042,0.0237 -0.09392,0.0322 -0.02921,0.0148 -0.06437,0.0237 -0.09985,0.0322 -0.02911,0.0148 -0.06413,0.0237 -0.09985,0.0319 -0.0252,0.0175 -0.05201,0.0335 -0.09595,0.0322 -0.04129,10e-4 -0.073,0.012 -0.105919,0.0215 -0.04111,0.006 -0.07783,0.0159 -0.129832,0.0108 0.0048,0.0496 -0.0575,0.0321 -0.08379,0.0506 -0.04603,-0.005 -0.05094,0.0319 -0.09989,0.0243 -0.04214,4.2e-4 -0.05768,0.0275 -0.09591,0.0318 5.28e-4,0.0394 -0.0187,0.059 -0.04396,0.0725 -0.02354,0.0111 -0.02266,0.0467 -0.04791,0.0561 -0.01376,0.0208 -0.0338,0.0353 -0.04194,0.0617 -0.04257,-0.002 -0.07518,0.007 -0.07997,0.0426 -0.01318,0.0254 -0.02469,0.0524 -0.06985,0.0457 -0.02871,0.0139 -0.06603,0.0192 -0.09591,0.0319 -0.02528,0.0155 -0.0596,0.0219 -0.08998,0.0322 -0.0237,0.0117 -0.04497,0.026 -0.06385,0.0426 -0.003,0.0349 -0.03281,0.043 -0.05994,0.0537 -0.01394,0.0237 -0.01669,0.0589 -0.05994,0.0534 -0.02266,0.0141 -0.01002,0.0635 -0.04588,0.0645 -0.03283,0.0123 -0.07353,0.0168 -0.11395,0.0215 -0.01879,0.0181 -0.05053,0.0231 -0.06789,0.0426 -0.02868,0.009 -0.04384,0.0315 -0.06995,0.043 -0.0019,0.0373 -0.004,0.0744 -0.03192,0.0857 -8.34e-4,0.0372 -0.06059,0.0154 -0.04993,0.0641 -0.02685,0.008 -0.0211,0.0477 -0.04993,0.0534 -0.01234,0.0225 -0.02825,0.0414 -0.03991,0.0645 -0.06372,-0.0206 -0.02316,0.063 -0.07592,0.0533 -0.02303,0.0146 -0.03876,0.0365 -0.06995,0.043 -0.04731,-0.006 -0.06296,0.0195 -0.09186,0.0319 -0.03239,0.005 -0.03739,0.0365 -0.06793,0.043 -0.01895,0.0192 -0.04995,0.0264 -0.07197,0.0426 -0.02877,0.006 -0.03953,0.0304 -0.06182,0.043 -0.002,0.0354 -0.03421,0.0406 -0.04005,0.0721 -0.01575,0.0236 -0.01104,0.0678 -0.0299,0.0884 -0.0014,0.036 -0.02548,0.0495 -0.03991,0.0725 -0.01803,0.0188 -0.05991,0.0138 -0.05994,0.0506 -0.01785,0.015 -0.02799,0.0376 -0.04993,0.0485 -0.01519,0.0192 -0.04212,0.0268 -0.04993,0.0534 -0.03629,0.006 -0.0531,0.031 -0.09392,0.0322 -0.0447,-0.003 -0.0828,5.5e-4 -0.09591,0.0291 -0.02259,0.0201 -0.07836,0.007 -0.07997,0.0482 -0.01652,0.0201 -0.02539,0.048 -0.06985,0.0402 -0.02014,0.0206 -0.08147,-3e-5 -0.08994,0.0322 -0.05326,0 -0.106528,0 -0.159793,0 -0.01524,0.0212 -0.09308,0.0136 -0.109866,0 -0.01098,-0.0237 -0.03419,-0.0352 -0.03991,-0.0641 -0.04018,-0.001 0.0022,0.0569 0.01598,0.0641 0.0087,0.0364 -0.04454,0.0312 -0.01598,0.0777 0.02771,0.013 0.05996,0.0213 0.04993,0.0721 0.01497,0.0149 0.04746,0.0506 0.01203,0.0645 -0.03934,7.9e-4 -0.03324,-0.0439 -0.06196,-0.0537 -0.01033,0.0337 -0.05102,0.0371 -0.09993,0.0322 -0.04296,0 -0.09341,-0.007 -0.107766,0.0215 -0.01996,-0.008 -0.06623,-0.0291 -0.04396,-0.0537 0.01317,-0.0312 0.09825,0.01 0.111887,-0.0211 0.01232,-0.0159 0.06635,-0.0275 0.04194,-0.0537 0.01523,-0.0353 1.56e-4,-0.0581 -0.02205,-0.0801 -0.02159,-0.002 -0.05061,0.0254 -0.08391,0.005 -0.04726,-0.004 -0.05092,0.0366 -0.109768,0.0215 -0.02992,0.009 -0.06256,0.016 -0.08599,0.0319 -0.0074,0.0296 -0.04127,0.0326 -0.05994,0.051 -0.01622,0.004 -0.06671,-0.0338 -0.07983,-0.008 -0.0495,10e-4 -0.09814,0.002 -0.133838,-0.0107 -0.02685,-0.019 -0.08305,-0.009 -0.115932,-0.0215 -0.01479,-0.0197 -0.04214,-0.0267 -0.04993,-0.0534 -0.033,-0.007 -0.05963,-0.0209 -0.06982,-0.051 -0.03779,-0.0233 -0.0438,0.05 -0.06995,0.0215 -0.0327,-0.006 -0.03648,-0.0412 -0.08189,-0.0346 -0.01815,0.0175 -0.08928,0.0154 -0.107941,0 0.02337,-0.0407 -0.0055,-0.0538 -0.03789,-0.0645 -0.02317,-0.0201 -0.06397,-0.005 -0.07197,0.0215 -0.03726,0.006 -0.06161,0.0247 -0.107882,0.0215 -0.0278,0.003 -0.04451,0.0498 -0.02187,0.0721 0.03574,0.003 0.03416,0.0442 0.03991,0.0777 -0.0073,0.0389 0.01424,0.10663 -0.01001,0.12854 0.01843,0.0425 -0.03821,0.10971 0.02195,0.0964 0.03345,0.03 0.05649,-0.0194 0.0779,-0.003 0.01919,0.009 0.06158,0.0362 0.03206,0.0669 0.008,0.0446 -0.03667,0.0365 -0.03206,0.0777 0.0046,0.0322 -0.06612,-0.004 -0.06981,-0.024 0.06211,0.0147 0.05221,-0.0256 0.01392,-0.0322 -0.01253,-0.0515 -0.0214,0.0224 -0.05792,0.0107 -0.03285,0.009 -0.06425,0.0188 -0.06587,0.0587 -0.01546,0.0287 -0.0217,0.0666 -0.02002,0.11239 0.0039,0.0501 -0.0028,0.0895 -0.01001,0.12854 -0.01054,0.0348 -0.0042,0.0866 -0.018,0.1181 0.0073,0.0429 -0.02144,0.0498 -0.03192,0.0749 -0.03819,0.003 -0.02059,0.0626 -0.04993,0.0749 0.004,0.0425 1.04e-4,0.0771 -0.0299,0.0856 -0.0172,0.0231 -0.01977,0.0608 -0.03004,0.0908 8.95e-4,0.0356 0.02493,0.0481 0.03992,0.0697 0.02148,0.006 0.03872,0.0607 0.02002,0.0749 0.0012,0.0374 0.01627,0.061 0.0299,0.0859 0.01808,0.0195 0.03032,0.0449 0.03803,0.0749 -6.58e-4,0.0401 0.0173,0.0615 0.02191,0.0963 0.02582,0.0125 0.0069,0.0697 0.04005,0.0749 -0.008,0.0549 0.01449,0.0793 0.0099,0.1308 -0.01767,0.0458 0.03664,0.0719 0.01001,0.0942 0.0012,0.0482 0.0017,0.0956 -0.01001,0.13079 -0.0015,0.0418 -0.0113,0.0752 -0.01989,0.10989 -0.0068,0.0336 -0.0011,0.0796 -0.03004,0.0911 0.02156,0.0394 -0.0055,0.0592 -0.0099,0.0989 -0.0018,0.0453 0.0064,0.10063 -0.01001,0.13131 -0.01492,0.0293 2.3e-5,0.0885 -0.02003,0.11266 0.0018,0.0382 -0.03825,0.0346 -0.03991,0.0693 -0.01503,0.0293 -0.0092,0.0796 -0.01001,0.12307 -0.02522,0.012 -0.02568,0.0488 -0.05792,0.0537 l -0.002,0 z"
       id="path3420"
       inkscape:connector-curvature="0"
       inkscape:export-filename="/home/glide/Documents/fcbn/web/bundles/fcbnnewsiflore/img/reun_active.png"
       inkscape:export-xdpi="85.834633"
       inkscape:export-ydpi="85.834633" />
  </g>
  <g
     transform="translate(-90.327986,-853.96535)"
     inkscape:label="Scale"
     id="layer2"
     inkscape:groupmode="layer"
     style="display:inline" />
</svg>
